<svg width="379" height="192" viewBox="0 0 379 192" fill="none" xmlns="http://www.w3.org/2000/svg">
<mask id="mask0_268_6103" style="mask-type:alpha" maskUnits="userSpaceOnUse" x="0" y="0" width="760" height="192">
<rect width="759.135" height="191.948" transform="matrix(-1 -8.8552e-08 -8.6308e-08 1 759.135 0)" fill="#C4C4C4"/>
</mask>
<g mask="url(#mask0_268_6103)">
<path d="M284.317 96.0842L379.275 96.0842L379.275 192.702L284.317 192.702L284.317 96.0842Z" fill="#CC5E2E"/>
<path d="M189.331 -0.532732L284.316 -0.532715L284.316 96.0847L189.331 -0.532732Z" fill="#992C21"/>
<path d="M189.331 96.0842L284.316 96.0842L284.316 192.729L189.331 96.0842Z" fill="#2161AC"/>
<path d="M189.332 192.729L94.3733 192.729L94.3734 96.084L189.332 192.729Z" fill="#9E7E2D"/>
<path d="M284.316 -0.532715L284.316 96.0847L189.331 96.0847L284.316 -0.532715Z" fill="#BD3728"/>
<path d="M-0.5849 -0.532976L94.3733 -0.532959L94.3733 96.0844L-0.5849 -0.532976Z" fill="#377FC0"/>
<path d="M-27.172 -27.5852L94.3734 -27.5852L94.3734 96.0839L-27.172 -27.5852Z" fill="#377FC0"/>
<path d="M35.0077 -0.53297L94.3733 -0.532959L94.3733 59.8699L35.0077 -0.53297Z" fill="#0C4D91"/>
<path d="M8.42052 -27.5852L94.3734 -27.5852L94.3734 59.8695L8.42052 -27.5852Z" fill="#0C4D91"/>
<path d="M94.3734 -0.532976L189.332 -0.532959L189.332 96.0844L94.3734 -0.532976Z" fill="#70C8BB"/>
<path d="M94.3734 96.084L189.332 96.084L189.332 192.729L94.3734 96.084Z" fill="#C59A2D"/>
<path d="M94.4537 -0.532976C119.624 -0.511286 143.757 9.67759 161.547 27.7945C179.338 45.9114 189.332 70.4741 189.332 96.0844L94.4537 96.0844L94.4537 -0.532976Z" fill="#06B395"/>
<path d="M94.4543 35.7085C110.192 35.7085 125.285 42.0695 136.413 53.3921C147.541 64.7147 153.793 80.0715 153.793 96.0841L94.4543 96.0841L94.4543 35.7085Z" fill="#049078"/>
<path d="M236.825 47.7894L189.332 -0.532967L189.332 96.0844L236.825 47.7894Z" fill="#CC5D4D"/>
<path d="M284.317 -0.532732L379.275 -0.532715L379.275 96.0847L284.317 96.0847L284.317 -0.532732Z" fill="#2161AC"/>
<path d="M355.529 39.7448C346.781 39.7448 339.689 32.5292 339.689 23.6282C339.689 14.7273 346.781 7.51171 355.529 7.51172C364.277 7.51172 371.369 14.7273 371.369 23.6283C371.369 32.5292 364.277 39.7448 355.529 39.7448Z" fill="#377FC0"/>
<path d="M355.529 88.0661C346.781 88.0661 339.689 80.8504 339.689 71.9495C339.689 63.0486 346.781 55.833 355.529 55.833C364.277 55.833 371.369 63.0486 371.369 71.9495C371.369 80.8504 364.277 88.0661 355.529 88.0661Z" fill="#E6EDF8"/>
<path d="M308.036 39.7448C299.288 39.7448 292.197 32.5292 292.197 23.6282C292.197 14.7273 299.288 7.51171 308.036 7.51172C316.785 7.51172 323.876 14.7273 323.876 23.6283C323.876 32.5292 316.785 39.7448 308.036 39.7448Z" fill="#E6EDF8"/>
<path d="M308.036 88.0661C299.288 88.0661 292.197 80.8504 292.197 71.9495C292.197 63.0486 299.288 55.833 308.036 55.833C316.785 55.833 323.876 63.0486 323.876 71.9495C323.876 80.8504 316.785 88.0661 308.036 88.0661Z" fill="#377FC0"/>
<path d="M331.783 192.729C305.553 192.729 284.29 171.094 284.29 144.407C284.29 117.719 305.553 96.0842 331.783 96.0842C358.012 96.0842 379.275 117.719 379.275 144.407C379.275 171.094 358.012 192.729 331.783 192.729Z" fill="#F27544"/>
<path d="M331.783 168.567C318.668 168.567 308.037 157.75 308.037 144.406C308.037 131.062 318.668 120.245 331.783 120.245C344.898 120.245 355.529 131.062 355.529 144.406C355.529 157.75 344.898 168.567 331.783 168.567Z" fill="#F9AB8B"/>
<path d="M228.917 96.0842L284.316 152.451L284.316 192.729L189.331 96.0842L228.917 96.0842Z" fill="#0C4D91"/>
<path d="M244.73 192.729L189.331 136.362L189.331 96.0842L284.316 192.729L244.73 192.729Z" fill="#2161AC"/>
<path d="M189.332 192.729L189.332 136.363L244.731 192.729L189.332 192.729Z" fill="#0C4D91"/>
<path d="M189.332 219.781L189.332 136.363L271.318 219.781L189.332 219.781Z" fill="#0C4D91"/>
</g>
</svg>
