<svg width="115" height="78" viewBox="0 0 115 78" fill="none" xmlns="http://www.w3.org/2000/svg">
<path d="M114.989 38.9951L76.6592 38.9951L76.6592 77.9891L114.989 77.9891L114.989 38.9951Z" fill="#CC5E2E"/>
<path d="M38.33 38.9951L0 38.9951L3.31921e-06 78.0001L38.33 38.9951Z" fill="#BD3728"/>
<path d="M3.31921e-06 78.0001L38.33 78.0001L38.33 38.9951L3.31921e-06 78.0001Z" fill="#CC5D4D"/>
<path d="M76.6606 -3.5198e-06L38.3306 0L38.3306 38.994L76.6606 -3.5198e-06Z" fill="#06B395"/>
<path d="M38.3306 38.994L76.6606 38.994L76.6606 -3.5198e-06L38.3306 38.994Z" fill="#049078"/>
<path d="M114.989 -3.5198e-06L76.6592 0L76.6592 38.994L114.989 38.994L114.989 -3.5198e-06Z" fill="#2161AC"/>
<path d="M86.2441 16.2561C89.7753 16.2561 92.6378 13.3439 92.6378 9.75157C92.6378 6.15923 89.7753 3.24707 86.2441 3.24707C82.7129 3.24707 79.8503 6.15923 79.8503 9.75157C79.8503 13.3439 82.7129 16.2561 86.2441 16.2561Z" fill="#377FC0"/>
<path d="M86.2441 35.758C89.7753 35.758 92.6378 32.8459 92.6378 29.2535C92.6378 25.6612 89.7753 22.749 86.2441 22.749C82.7129 22.749 79.8503 25.6612 79.8503 29.2535C79.8503 32.8459 82.7129 35.758 86.2441 35.758Z" fill="#E6EDF8"/>
<path d="M105.415 16.2561C108.946 16.2561 111.809 13.3439 111.809 9.75157C111.809 6.15923 108.946 3.24707 105.415 3.24707C101.884 3.24707 99.0215 6.15923 99.0215 9.75157C99.0215 13.3439 101.884 16.2561 105.415 16.2561Z" fill="#E6EDF8"/>
<path d="M105.415 35.758C108.946 35.758 111.809 32.8459 111.809 29.2535C111.809 25.6612 108.946 22.749 105.415 22.749C101.884 22.749 99.0215 25.6612 99.0215 29.2535C99.0215 32.8459 101.884 35.758 105.415 35.758Z" fill="#377FC0"/>
<path d="M76.6606 38.9932L38.3306 38.9932L38.3306 48.7444L76.6606 48.7444L76.6606 38.9932Z" fill="#C59A2D"/>
<path d="M76.6606 68.2476L38.3306 68.2476L38.3306 77.9988L76.6606 77.9988L76.6606 68.2476Z" fill="#9E7E2D"/>
<path d="M76.6606 48.7451L38.3306 48.7451L38.3306 58.4964L76.6606 58.4964L76.6606 48.7451Z" fill="#9E7E2D"/>
<path d="M76.6606 58.4956L38.3306 58.4956L38.3306 68.2468L76.6606 68.2468L76.6606 58.4956Z" fill="#C59A2D"/>
<path d="M64.2732 12.6022C62.4756 10.7735 60.0376 9.74609 57.4954 9.74609C54.9532 9.74609 52.5152 10.7735 50.7176 12.6022C48.92 14.4309 47.9102 16.9112 47.9102 19.4974C47.9102 22.0836 48.92 24.5639 50.7176 26.3926L64.2732 12.6022Z" fill="#70C8BB"/>
<path d="M50.7175 26.3925C52.5151 28.2212 54.9532 29.2486 57.4953 29.2486C58.7541 29.2486 60.0005 28.9963 61.1635 28.5063C62.3264 28.0162 63.3831 27.298 64.2731 26.3925C65.1632 25.487 65.8693 24.412 66.351 23.2289C66.8327 22.0458 67.0806 20.7778 67.0806 19.4973C67.0806 18.2167 66.8327 16.9487 66.351 15.7656C65.8693 14.5825 65.1632 13.5075 64.2731 12.602L50.7175 26.3925Z" fill="#E8F5F2"/>
<path d="M23.9522 38.9951L0 38.9951L2.0745e-06 63.3732L23.9522 38.9951Z" fill="#992C21"/>
<path d="M95.8296 78.0001C106.417 78.0001 115 69.2685 115 58.4976C115 47.7267 106.417 38.9951 95.8296 38.9951C85.2421 38.9951 76.6592 47.7267 76.6592 58.4976C76.6592 69.2685 85.2421 78.0001 95.8296 78.0001Z" fill="#F27544"/>
<path d="M95.8298 68.2476C101.124 68.2476 105.415 63.8818 105.415 58.4964C105.415 53.1109 101.124 48.7451 95.8298 48.7451C90.5361 48.7451 86.2446 53.1109 86.2446 58.4964C86.2446 63.8818 90.5361 68.2476 95.8298 68.2476Z" fill="#F9AB8B"/>
</svg>
